# xmcd CD database file
#
# Track frame offsets:
#	150
#	12429
#	22626
#	33702
#	46759
#	54825
#	66264
#	76216
#	86765
#	98029
#	108361
#	118665
#	131328
#	143514
#	151981
#	162650
#	171864
#	183728
#
# Disc length: 2581 seconds
#
# Revision: 4
# Processed by: cddbd v1.5.2PL0 Copyright (c) Steve Scherf et al.
# Submitted via: CDex 1.51
#
DISCID=e10a1312
DTITLE=Johnny Cash - Ballad of a Teenage Queen (18 Gr Hits)
DYEAR=1900
DGENRE=Country
TTITLE0=You're The Nearest Thing To Heaven
TTITLE1=Rock Island Line
TTITLE2=Cold Cold Heart
TTITLE3=Folsom Prison Blues
TTITLE4=Hey Good Lookin'
TTITLE5=I Love You Because
TTITLE6=Just About Time
TTITLE7=Straight As In Love
TTITLE8=I Just Thought You'd Like To Know
TTITLE9=Goodbye Little Darling
TTITLE10=I Could Never Be Ashamed Of You
TTITLE11=Nex In Line
TTITLE12=Port Of Lonely Hearts
TTITLE13=Sugartime
TTITLE14=There You Go
TTITLE15=Two-Timin' Woman
TTITLE16=Big River
TTITLE17=Ballad Of A Teenage Queen
EXTD=
EXTT0=
EXTT1=
EXTT2=
EXTT3=
EXTT4=
EXTT5=
EXTT6=
EXTT7=
EXTT8=
EXTT9=
EXTT10=
EXTT11=
EXTT12=
EXTT13=
EXTT14=
EXTT15=
EXTT16=
EXTT17=
PLAYORDER=
